<?xml version="1.0" standalone="no"?>
<!DOCTYPE svg PUBLIC "-//W3C//DTD SVG 20010904//EN"
 "http://www.w3.org/TR/2001/REC-SVG-20010904/DTD/svg10.dtd">
<svg version="1.0" xmlns="http://www.w3.org/2000/svg"
 width="332.000000pt" height="254.000000pt" viewBox="0 0 332.000000 254.000000"
 preserveAspectRatio="xMidYMid meet">

<g transform="translate(0.000000,254.000000) scale(0.100000,-0.100000)"
fill="#000000" stroke="none">
<path d="M0 2293 l0 -247 103 169 103 170 550 0 c599 0 605 -1 670 -57 66 -58
81 -145 46 -268 -10 -36 -105 -319 -210 -629 -106 -310 -191 -565 -190 -566 2
-1 152 134 333 300 182 166 557 510 835 763 l505 461 255 1 c248 0 254 0 235
-19 -11 -10 -305 -272 -654 -582 l-635 -564 100 -8 c126 -9 177 -33 212 -97
41 -77 30 -149 -71 -440 -47 -135 -90 -257 -96 -272 l-10 -28 335 -2 335 -3
-26 -50 c-47 -96 -142 -163 -271 -190 -101 -21 -778 -22 -850 0 -86 25 -133
101 -119 191 3 24 55 189 115 365 70 205 104 316 93 308 -9 -8 -203 -179 -430
-381 -227 -201 -439 -383 -470 -404 -31 -20 -88 -49 -127 -63 -65 -24 -86 -26
-265 -29 -184 -3 -193 -3 -189 15 3 10 150 427 327 926 176 500 321 911 321
913 0 2 -193 4 -430 4 l-430 0 0 -990 0 -990 1660 0 1660 0 0 1270 0 1270
-1660 0 -1660 0 0 -247z"/>
</g>
</svg>
