<?xml version="1.0" standalone="no"?>
<!DOCTYPE svg PUBLIC "-//W3C//DTD SVG 20010904//EN"
 "http://www.w3.org/TR/2001/REC-SVG-20010904/DTD/svg10.dtd">
<svg version="1.0" xmlns="http://www.w3.org/2000/svg"
 width="3034.000000pt" height="1680.000000pt" viewBox="0 0 3034.000000 1680.000000"
 preserveAspectRatio="xMidYMid meet">
<metadata>
Created by potrace 1.16, written by Peter Selinger 2001-2019
</metadata>
<g transform="translate(0.000000,1680.000000) scale(0.100000,-0.100000)"
fill="#000000" stroke="none">
<path d="M0 8400 l0 -8400 15170 0 15170 0 0 8400 0 8400 -15170 0 -15170 0 0
-8400z m13890 930 c0 -328 3 -490 10 -490 6 0 42 16 80 35 38 19 109 47 157
62 79 24 104 27 243 27 138 1 162 -2 224 -23 195 -67 324 -234 379 -491 30
-141 30 -400 -1 -525 -96 -386 -412 -606 -872 -608 -174 0 -341 23 -532 74
l-78 21 0 1184 c0 651 1 1184 3 1185 8 3 319 36 350 38 l37 1 0 -490z m-3888
-217 l3 -527 471 525 470 524 233 3 c224 2 232 2 229 -17 -2 -10 -214 -251
-473 -536 -258 -284 -469 -523 -469 -530 1 -7 225 -272 498 -589 273 -316 496
-582 496 -591 0 -13 -32 -15 -248 -15 l-249 0 -154 183 c-85 100 -301 355
-479 566 l-325 385 -3 -567 -2 -567 -205 0 -205 0 0 1140 0 1140 205 0 205 0
2 -527z m8162 499 c433 -93 681 -297 785 -647 41 -142 55 -250 55 -455 0 -163
-4 -212 -22 -297 -99 -459 -406 -733 -932 -830 -81 -15 -158 -18 -540 -18
l-445 0 -3 1125 c-1 619 0 1131 3 1138 4 11 94 13 502 9 459 -4 506 -6 597
-25z m1666 -932 l0 -960 540 0 540 0 0 -180 0 -180 -745 0 -745 0 0 1140 0
1140 205 0 205 0 0 -960z m-3638 275 c232 -48 404 -213 470 -452 18 -66 21
-104 21 -249 0 -94 -3 -177 -7 -183 -5 -8 -153 -11 -527 -11 l-520 0 6 -37
c24 -145 60 -227 130 -292 94 -87 218 -121 373 -102 103 13 175 35 290 93 46
22 84 39 86 37 2 -2 33 -58 69 -124 46 -85 62 -124 55 -132 -20 -25 -255 -133
-332 -153 -116 -29 -268 -41 -384 -30 -277 27 -459 132 -578 337 -83 141 -121
390 -94 613 15 123 36 192 92 309 43 90 62 116 132 187 68 68 99 90 177 127
52 25 126 53 164 61 93 19 285 20 377 1z m-4162 -590 l5 -590 25 -44 c39 -69
97 -95 213 -94 102 1 177 21 303 78 l74 34 0 585 c0 322 3 586 8 586 4 0 90 9
192 20 102 11 186 20 188 20 1 0 2 -360 2 -800 l0 -800 -170 0 -169 0 -11 43
c-16 61 -19 69 -28 65 -177 -91 -305 -133 -448 -148 -145 -15 -271 7 -369 64
-51 31 -127 111 -154 164 -50 98 -51 114 -51 764 0 334 3 608 8 609 4 0 81 9
172 19 91 10 174 17 185 16 20 -1 20 -10 25 -591z"/>
<path d="M14155 8646 c-74 -15 -140 -35 -217 -68 l-48 -20 0 -458 0 -458 23
-6 c12 -4 69 -9 127 -12 178 -10 307 29 410 123 109 100 150 222 150 443 0
214 -42 345 -132 410 -22 17 -57 35 -77 40 -60 18 -162 20 -236 6z"/>
<path d="M17480 8500 l0 -793 218 6 c399 10 569 61 712 214 66 70 110 154 142
270 20 69 22 103 22 303 0 257 -11 318 -84 466 -72 147 -205 245 -400 295 -73
18 -122 22 -347 26 l-263 5 0 -792z"/>
<path d="M15917 8680 c-124 -32 -213 -131 -253 -285 -10 -35 -10 -51 -2 -56
14 -9 585 -11 616 -2 22 5 23 9 17 57 -18 141 -61 218 -148 260 -61 30 -166
42 -230 26z"/>
</g>
</svg>
