<?xml version="1.0" standalone="no"?>
<!DOCTYPE svg PUBLIC "-//W3C//DTD SVG 20010904//EN"
 "http://www.w3.org/TR/2001/REC-SVG-20010904/DTD/svg10.dtd">
<svg version="1.0" xmlns="http://www.w3.org/2000/svg"
 width="1498.000000pt" height="1498.000000pt" viewBox="0 0 1498.000000 1498.000000"
 preserveAspectRatio="xMidYMid meet">
<metadata>
Created by potrace 1.14, written by Peter Selinger 2001-2017
</metadata>
<g transform="translate(0.000000,1498.000000) scale(0.100000,-0.100000)"
fill="#000000" stroke="none">
<path d="M7047 14969 c-264 -60 -416 -429 -342 -833 23 -126 23 -129 59 -233
39 -115 62 -162 122 -249 51 -76 54 -99 23 -207 -11 -39 -22 -79 -24 -88 -13
-60 -72 -95 -171 -104 -38 -3 -98 -8 -134 -11 -73 -6 -142 -13 -180 -20 -14
-2 -47 -6 -74 -9 -188 -22 -635 -128 -936 -223 -63 -19 -119 -37 -125 -38 -16
-3 -261 -89 -380 -132 -314 -115 -661 -270 -905 -403 -180 -98 -210 -115 -380
-217 -349 -209 -651 -420 -793 -554 l-37 -36 -68 35 c-100 51 -117 72 -152
192 -37 123 -81 219 -148 321 -148 226 -364 419 -546 485 -158 57 -294 34
-406 -71 -146 -137 -137 -332 26 -561 75 -105 305 -323 342 -323 6 0 12 -3 14
-7 5 -13 80 -59 165 -101 86 -44 162 -68 234 -76 89 -10 109 -26 163 -134 l27
-54 -24 -31 c-14 -18 -35 -43 -47 -57 -153 -173 -456 -540 -531 -643 -209
-288 -379 -552 -544 -847 -35 -63 -189 -375 -235 -475 -105 -233 -267 -701
-336 -970 -4 -16 -8 -34 -10 -40 -40 -151 -117 -508 -129 -600 -2 -22 -7 -49
-9 -61 -2 -12 -7 -45 -11 -75 -3 -30 -8 -70 -11 -90 -10 -75 -22 -234 -30
-379 -3 -47 -7 -251 -10 -453 l-5 -368 23 12 c50 26 202 153 393 328 47 43
164 143 220 188 120 96 159 126 255 194 117 83 130 94 147 129 12 24 15 46 28
175 4 33 8 67 10 75 2 8 7 40 10 70 3 30 8 62 10 70 2 8 7 31 10 50 5 30 33
180 49 260 3 14 8 39 11 55 3 17 8 38 11 47 3 9 7 25 9 35 16 79 35 144 94
323 319 962 727 1636 1391 2301 242 243 385 368 610 537 118 89 402 282 415
282 4 0 20 9 35 20 130 92 549 297 845 413 184 72 504 175 595 191 14 2 32 7
40 10 8 3 26 7 40 10 14 2 71 14 128 25 98 20 132 26 197 37 17 2 55 9 85 14
30 5 75 12 100 15 25 3 56 8 70 10 14 3 48 7 75 10 28 3 64 7 80 10 47 7 112
14 205 22 98 8 436 10 443 3 6 -5 15 -110 22 -235 3 -44 7 -114 10 -155 7
-105 13 -208 20 -325 3 -55 8 -122 10 -150 4 -48 10 -144 20 -320 3 -44 7
-107 10 -140 2 -33 7 -105 10 -160 3 -55 7 -127 10 -160 2 -33 7 -105 10 -160
4 -55 8 -127 11 -160 2 -33 6 -103 9 -155 3 -52 8 -124 10 -160 3 -36 7 -101
10 -145 3 -44 7 -114 10 -155 3 -41 8 -120 10 -175 3 -55 8 -120 10 -145 2
-25 7 -92 10 -150 9 -147 12 -190 20 -312 l7 -108 -38 0 c-22 -1 -151 -3 -289
-5 -233 -4 -485 -8 -1280 -20 -176 -3 -450 -7 -610 -10 -434 -7 -1106 -17
-1223 -18 l-104 -1 6 -28 c16 -79 121 -242 256 -397 75 -86 179 -188 207 -204
10 -6 -149 -64 -484 -177 -632 -213 -602 -202 -721 -257 -41 -18 -76 -33 -79
-33 -26 0 -512 -254 -658 -344 l-60 -37 45 7 c25 3 144 40 265 81 219 74 430
144 430 142 0 -1 18 4 40 10 48 13 318 77 360 85 17 4 41 9 55 12 14 3 36 7
50 10 140 26 185 34 250 45 41 6 82 13 91 14 9 2 40 6 70 10 30 3 65 8 79 10
14 3 48 7 75 10 28 3 73 8 100 11 59 7 91 10 210 19 50 4 106 8 125 10 250 24
977 24 1345 0 110 -8 219 -15 275 -20 151 -12 198 -16 235 -20 22 -2 72 -7
110 -10 39 -3 86 -8 105 -10 19 -3 56 -7 83 -10 190 -21 228 -25 267 -30 19
-3 58 -7 85 -10 28 -3 82 -10 120 -15 80 -11 128 -17 200 -25 28 -4 75 -10
105 -15 30 -5 78 -12 105 -15 56 -7 188 -25 325 -45 36 -5 81 -12 100 -14 19
-3 53 -8 75 -11 64 -10 87 -13 140 -21 28 -3 57 -8 65 -9 9 -2 43 -6 75 -10
33 -4 69 -9 80 -11 11 -2 40 -6 65 -9 25 -3 56 -8 70 -10 14 -3 41 -7 60 -10
71 -10 376 -55 400 -59 28 -5 75 -12 135 -21 22 -3 51 -8 65 -11 14 -4 39 -8
55 -9 17 -2 44 -6 60 -9 17 -3 73 -13 125 -22 52 -8 106 -17 120 -20 31 -5
253 -42 295 -49 17 -3 46 -8 65 -11 19 -3 49 -8 65 -11 17 -2 71 -11 120 -20
50 -8 99 -16 110 -17 42 -6 131 -18 145 -21 18 -3 94 -15 130 -20 14 -2 63 -9
110 -15 47 -6 96 -13 110 -15 14 -2 50 -6 80 -10 30 -3 71 -7 90 -10 114 -15
229 -27 395 -40 44 -4 96 -8 115 -10 229 -22 900 -22 1075 0 17 2 68 7 115 10
47 3 92 7 100 10 8 2 44 7 80 10 36 3 72 8 80 10 8 2 35 7 60 10 168 23 404
73 682 145 420 110 508 157 785 423 104 101 219 234 209 244 -2 2 -30 -6 -62
-19 -33 -12 -63 -23 -69 -24 -5 -2 -106 -37 -224 -79 -183 -65 -367 -118 -486
-139 -16 -3 -40 -8 -51 -10 -12 -2 -37 -7 -55 -10 -19 -3 -45 -8 -59 -11 -14
-3 -38 -8 -55 -10 -16 -3 -79 -14 -140 -24 -95 -17 -146 -24 -240 -36 -11 -2
-47 -6 -80 -10 -33 -3 -73 -8 -90 -10 -159 -20 -758 -27 -990 -12 -66 5 -145
10 -175 12 -75 5 -176 14 -230 19 -25 3 -70 8 -100 11 -30 3 -71 8 -90 10 -19
2 -60 7 -90 10 -78 9 -120 14 -162 20 -46 6 -109 14 -163 21 -22 2 -71 9 -110
15 -38 5 -83 11 -100 13 -36 5 -120 16 -155 22 -34 5 -98 14 -140 20 -32 4
-203 32 -240 39 -8 2 -53 10 -100 19 -47 9 -96 18 -110 21 -14 3 -72 14 -130
25 -58 11 -116 23 -130 25 -14 3 -79 12 -145 19 -66 7 -132 18 -147 24 -38 16
-88 88 -216 312 -11 19 -133 233 -272 475 -139 242 -265 463 -280 490 -15 28
-59 106 -97 175 -93 167 -171 309 -283 520 -57 107 -356 708 -413 830 -14 30
-46 100 -70 155 -25 55 -56 125 -70 155 -185 405 -507 1245 -507 1322 0 6 22
7 58 3 171 -20 223 -26 242 -30 9 -2 41 -6 70 -10 29 -4 62 -9 74 -11 11 -2
38 -6 61 -10 35 -5 275 -51 390 -74 254 -52 725 -193 990 -296 393 -153 830
-373 1102 -556 40 -26 75 -48 78 -48 3 0 11 -5 18 -10 7 -6 75 -56 151 -111
424 -306 759 -632 1068 -1039 89 -118 268 -382 268 -396 0 -3 9 -18 20 -34
109 -153 339 -662 439 -972 69 -213 154 -561 176 -718 4 -25 11 -64 16 -88 5
-24 7 -47 4 -52 -9 -14 453 6 565 25 14 3 48 7 75 10 28 4 57 8 65 10 8 2 38
7 65 11 28 3 58 8 67 9 9 2 59 7 110 11 51 3 97 9 102 12 8 4 3 182 -7 227 -2
11 -7 36 -11 55 -11 60 -13 73 -35 156 -111 432 -441 1247 -660 1629 -207 360
-398 641 -620 915 -333 409 -384 470 -455 545 -42 43 -76 85 -76 92 0 23 41
121 62 148 25 32 83 59 164 75 157 31 311 108 469 235 297 237 432 506 355
707 -28 75 -104 159 -176 194 -104 51 -218 43 -359 -26 -132 -64 -265 -176
-391 -330 -115 -142 -177 -250 -234 -409 -22 -62 -47 -125 -55 -141 -21 -40
-90 -96 -140 -114 -39 -13 -46 -12 -67 2 -12 9 -25 18 -28 22 -22 25 -320 256
-420 325 -99 69 -298 191 -480 295 -131 75 -492 240 -715 327 -228 89 -705
243 -857 278 -13 2 -113 27 -223 54 -110 27 -213 52 -230 54 -16 3 -84 17
-150 30 -66 14 -136 28 -155 31 -19 3 -46 8 -60 11 -24 5 -50 9 -115 20 -16 3
-55 9 -85 14 -51 9 -76 13 -170 27 -19 3 -60 9 -90 14 -30 5 -73 12 -95 16
-65 10 -84 37 -114 156 -28 117 -17 172 77 368 57 118 96 231 109 311 10 67
10 307 0 374 -25 170 -65 282 -133 371 -47 61 -67 78 -129 108 -56 28 -131 38
-188 25z"/>
<path d="M6988 11703 c-94 -142 -439 -701 -613 -995 -86 -145 -172 -288 -186
-308 -9 -14 -77 -126 -150 -250 -152 -256 -144 -243 -183 -307 -16 -26 -78
-131 -139 -233 -60 -102 -125 -210 -145 -240 -19 -30 -43 -68 -52 -85 -10 -16
-36 -59 -58 -95 -140 -225 -291 -504 -279 -517 3 -3 50 12 104 32 54 20 105
39 113 41 8 2 66 17 128 33 61 16 112 27 112 25 0 -2 10 0 23 5 12 5 49 12 82
16 32 3 62 8 65 10 3 1 32 6 65 9 33 4 71 9 85 11 107 16 452 22 565 10 52 -5
104 -13 190 -29 11 -2 37 -6 58 -10 98 -18 197 -26 198 -17 3 16 8 144 13 351
4 124 9 286 11 360 3 74 7 227 10 340 5 204 11 406 20 700 3 85 7 236 10 335
2 99 7 259 10 355 11 356 15 550 11 550 -2 0 -32 -44 -68 -97z"/>
<path d="M4419 7336 c-2 -2 -65 -7 -139 -10 -74 -4 -153 -9 -175 -11 -22 -2
-67 -7 -100 -9 -63 -5 -114 -11 -230 -26 -38 -5 -90 -12 -115 -15 -42 -6 -235
-38 -325 -55 -22 -4 -74 -15 -115 -25 -41 -9 -85 -19 -98 -21 -278 -55 -813
-232 -1122 -371 -253 -115 -610 -304 -774 -411 -108 -69 -336 -234 -481 -346
-133 -104 -335 -293 -335 -314 0 -18 44 -6 129 36 41 21 78 38 82 40 4 2 7
-52 6 -120 -2 -373 38 -493 278 -818 102 -139 188 -264 222 -325 161 -282 192
-420 169 -745 -9 -122 -10 -299 -2 -365 10 -83 17 -130 22 -145 3 -8 12 -46
20 -84 15 -71 86 -230 126 -281 29 -36 113 -122 151 -153 86 -70 196 -128 432
-227 294 -123 424 -203 518 -320 50 -62 72 -104 158 -302 70 -161 161 -338
216 -420 70 -105 160 -208 211 -241 15 -9 73 -49 130 -89 132 -92 249 -131
442 -148 41 -3 95 -8 120 -10 25 -2 90 -7 145 -10 154 -10 220 -19 335 -47
115 -28 239 -83 335 -147 89 -60 109 -77 279 -235 66 -61 124 -116 130 -121 6
-6 40 -35 76 -65 36 -30 67 -58 70 -61 10 -12 157 -106 205 -131 69 -37 188
-75 260 -84 75 -10 231 -10 310 0 51 6 408 65 485 81 14 2 39 7 55 11 17 3 59
14 94 25 113 34 146 35 286 4 25 -5 101 -28 314 -94 187 -58 328 -97 386 -106
22 -4 63 -10 90 -15 92 -15 312 -5 399 19 159 44 308 122 471 248 17 13 35 27
40 31 6 4 57 46 115 93 163 134 224 173 355 229 59 25 135 46 200 55 22 4 51
8 65 11 14 3 104 7 200 9 410 11 516 15 540 19 14 3 42 7 62 10 112 17 225 51
298 90 234 124 410 335 645 771 27 50 55 96 62 103 7 7 13 17 13 21 0 16 129
138 185 175 52 35 199 107 245 121 114 33 418 137 481 164 242 105 390 265
475 514 39 115 55 214 60 367 5 187 13 337 19 375 47 268 155 454 472 811 179
201 235 277 297 400 78 157 104 340 82 579 -11 120 -16 177 -21 210 -24 178
-24 467 0 670 8 70 16 144 21 200 12 151 19 162 166 266 112 80 195 145 293
232 126 112 150 135 143 142 -10 10 -92 -18 -253 -87 -77 -33 -174 -71 -215
-84 -87 -29 -475 -143 -505 -148 -11 -2 -47 -11 -80 -19 -62 -16 -233 -52
-295 -62 -19 -3 -60 -10 -90 -15 -30 -5 -75 -12 -100 -15 -25 -3 -61 -7 -80
-10 -83 -10 -216 -21 -370 -30 -128 -8 -592 -8 -675 -1 -33 2 -114 8 -180 11
-66 4 -136 8 -155 10 -19 2 -75 6 -125 10 -49 3 -101 8 -115 10 -14 2 -63 6
-110 10 -47 3 -96 8 -110 10 -14 3 -74 9 -135 15 -60 6 -128 13 -150 16 -64 8
-105 13 -195 24 -155 19 -222 27 -270 35 -14 3 -72 11 -130 19 -134 19 -172
25 -240 36 -30 5 -68 12 -85 14 -16 3 -73 12 -125 21 -52 9 -106 18 -120 20
-23 4 -107 18 -345 60 -49 9 -101 18 -115 21 -47 9 -245 44 -280 50 -19 3 -42
7 -50 9 -8 2 -28 7 -45 10 -16 2 -41 7 -55 10 -14 3 -41 8 -60 11 -19 3 -93
17 -165 30 -195 37 -380 71 -475 88 -47 9 -123 22 -170 31 -47 8 -101 18 -120
21 -19 3 -114 19 -210 35 -96 16 -191 32 -210 35 -19 3 -73 11 -120 19 -47 8
-107 17 -135 21 -27 3 -59 8 -69 10 -11 2 -56 8 -100 14 -45 6 -92 13 -106 15
-14 2 -50 6 -80 10 -30 4 -66 8 -80 10 -37 5 -118 15 -175 20 -27 3 -68 7 -90
10 -86 10 -133 14 -200 20 -38 3 -88 8 -110 10 -22 2 -89 7 -150 11 -60 4
-132 9 -160 11 -66 5 -871 13 -876 9z m-514 -831 c239 -9 277 -11 365 -19 41
-3 111 -8 155 -12 44 -3 91 -7 105 -9 14 -2 57 -6 95 -10 39 -3 86 -8 105 -10
19 -2 60 -7 90 -10 30 -4 66 -8 80 -10 14 -2 51 -7 83 -10 32 -4 67 -8 79 -10
11 -3 46 -7 77 -10 31 -3 65 -8 77 -10 11 -3 43 -7 70 -10 27 -3 94 -12 149
-20 55 -8 120 -17 145 -20 25 -3 92 -12 150 -21 58 -8 123 -17 145 -20 22 -2
63 -9 90 -14 28 -5 71 -11 96 -15 25 -3 57 -8 70 -10 29 -5 91 -14 139 -21 33
-4 47 -7 110 -19 14 -3 63 -12 110 -20 135 -24 242 -52 250 -66 7 -11 14 -70
26 -214 5 -58 4 -916 -1 -1075 -5 -168 -14 -316 -20 -355 -3 -16 -10 -57 -16
-90 -53 -309 -215 -524 -435 -579 -103 -26 -237 -23 -354 7 -128 33 -303 117
-459 221 -367 244 -786 693 -944 1011 -35 71 -62 143 -55 150 3 4 55 11 143
20 33 3 71 8 85 10 14 2 57 7 95 10 39 4 79 9 90 10 11 1 34 3 50 4 29 1 26 5
-71 99 -116 112 -394 377 -474 452 -109 102 -393 374 -516 492 l-52 50 -11
-64 c-15 -85 -14 -82 -65 -338 -25 -124 -47 -236 -49 -250 -3 -14 -17 -86 -32
-160 -15 -74 -28 -139 -29 -145 -1 -5 -26 -133 -56 -282 -29 -150 -51 -275
-48 -278 7 -8 67 22 173 86 45 26 107 60 138 75 56 25 59 25 78 8 10 -9 19
-23 19 -30 0 -7 3 -14 8 -16 4 -1 45 -70 92 -152 90 -158 114 -193 304 -438
120 -154 296 -340 437 -460 98 -84 303 -238 317 -238 5 0 12 -4 14 -8 4 -12
181 -121 298 -185 317 -173 556 -260 941 -342 269 -57 283 -64 524 -243 61
-45 128 -90 150 -101 37 -17 41 -17 65 -2 21 13 224 159 255 183 138 108 133
106 345 142 58 10 254 61 374 98 393 120 699 278 1091 561 61 44 130 98 155
120 108 96 377 367 428 431 32 39 60 73 63 76 29 24 236 338 355 537 27 45 53
82 57 83 4 0 91 -43 192 -95 102 -52 185 -91 185 -87 0 4 -9 52 -21 107 -11
55 -22 111 -24 125 -2 14 -11 59 -19 100 -8 41 -17 89 -20 105 -3 17 -10 55
-16 85 -6 30 -13 69 -16 85 -3 17 -12 62 -20 100 -19 94 -19 92 24 92 56 1
528 15 597 17 33 2 63 1 67 -1 3 -2 -9 -42 -28 -91 -19 -48 -71 -186 -115
-307 -168 -459 -265 -658 -479 -980 -79 -119 -271 -380 -316 -431 -10 -12 -48
-56 -84 -98 -148 -176 -454 -449 -650 -582 -339 -231 -735 -413 -1167 -539
-83 -24 -162 -47 -175 -49 -13 -3 -33 -7 -45 -10 -71 -18 -143 -34 -178 -40
-566 -104 -974 -107 -1455 -11 -14 3 -41 8 -60 11 -32 6 -217 48 -265 60 -11
3 -30 7 -42 10 -31 6 -257 72 -328 95 -518 170 -978 424 -1350 743 -177 151
-409 406 -581 636 -193 257 -369 559 -509 875 -74 166 -200 532 -266 770 -35
127 -70 260 -75 285 -3 14 -11 52 -19 85 -8 33 -19 88 -25 122 -6 35 -13 75
-15 90 -3 16 -7 60 -10 100 -5 81 -8 77 82 88 78 9 152 14 328 21 88 4 161 7
162 8 4 3 252 -3 418 -9z m-1689 -266 c1 -73 5 -147 8 -164 20 -113 17 -100
31 -150 20 -72 80 -182 194 -352 140 -210 189 -300 230 -427 47 -144 64 -234
86 -456 35 -339 80 -496 189 -658 91 -134 200 -232 404 -365 202 -132 348
-246 418 -327 12 -14 31 -36 43 -49 12 -13 33 -49 47 -79 42 -89 24 -162 -55
-216 -69 -48 -96 -35 -221 114 -80 95 -172 181 -252 237 -38 26 -109 75 -156
108 -122 84 -285 249 -361 364 -129 196 -197 379 -270 731 -50 240 -62 291
-71 316 -5 13 -7 24 -4 24 2 0 0 8 -5 18 -6 11 -12 30 -15 43 -14 77 -116 310
-174 399 -16 25 -57 87 -91 139 -33 52 -61 95 -61 97 0 1 -20 36 -44 76 -61
105 -111 235 -136 358 -20 100 -33 271 -21 288 6 9 260 71 275 68 5 -1 10 -63
12 -137z m-602 -71 c-2 -29 -9 -73 -14 -98 -6 -25 -12 -54 -15 -65 -2 -11 -11
-54 -21 -95 -15 -70 -21 -219 -10 -265 2 -11 7 -33 11 -50 27 -115 98 -256
228 -450 134 -199 201 -314 231 -394 30 -80 39 -133 51 -281 12 -146 55 -406
91 -543 9 -34 17 -69 19 -77 15 -71 97 -245 150 -316 90 -119 173 -187 418
-338 86 -54 163 -103 170 -109 6 -7 30 -25 52 -42 134 -99 224 -239 230 -356
1 -35 1 -79 -2 -97 l-5 -32 -64 0 c-35 0 -82 7 -104 16 -35 14 -120 96 -120
117 0 16 -80 114 -117 143 -21 17 -65 48 -98 69 -69 45 -189 130 -224 160
-184 153 -278 259 -370 420 -68 119 -142 309 -176 455 -2 8 -10 45 -19 81 -17
75 -24 108 -32 159 -3 19 -7 42 -9 50 -2 8 -7 31 -10 50 -13 78 -48 230 -72
314 -34 119 -62 179 -130 282 -199 296 -284 452 -332 609 -40 132 -42 149 -46
290 -5 224 31 331 131 386 47 27 192 71 205 63 3 -2 5 -27 3 -56z m11206 -140
c1 -77 8 -218 16 -338 11 -140 10 -463 0 -525 -34 -206 -150 -438 -311 -621
-5 -7 -17 -20 -25 -30 -8 -11 -39 -47 -68 -82 -71 -87 -142 -192 -186 -281
-35 -69 -109 -276 -119 -331 -15 -80 -87 -315 -127 -410 -110 -264 -229 -451
-386 -607 -98 -97 -213 -175 -384 -262 -161 -83 -186 -101 -300 -222 -124
-132 -175 -158 -243 -123 -60 32 -65 42 -67 142 -2 75 27 128 117 212 95 88
198 157 333 222 237 113 298 146 372 201 106 80 187 178 253 307 15 30 36 71
46 90 36 72 119 341 164 540 26 113 58 237 70 276 48 151 121 265 309 478 40
45 138 181 170 235 40 68 90 195 107 271 16 68 16 257 1 330 -7 30 -14 71 -17
90 -3 19 -9 62 -13 94 -5 33 -8 98 -7 146 3 100 18 135 76 176 40 28 160 72
197 73 20 1 22 -4 22 -51z m-5311 -34 c78 -12 176 -29 251 -43 30 -6 69 -13
85 -16 28 -5 47 -8 105 -20 14 -2 39 -7 55 -10 17 -3 41 -7 55 -10 34 -7 200
-37 225 -40 11 -2 34 -6 50 -9 25 -5 140 -24 240 -41 11 -1 36 -6 55 -9 19 -3
52 -8 73 -11 42 -6 102 -15 133 -20 12 -2 48 -7 80 -10 33 -4 66 -9 74 -10 9
-2 43 -6 75 -10 33 -3 74 -8 90 -10 17 -2 68 -7 115 -10 47 -4 101 -9 120 -11
19 -1 63 -4 98 -5 34 -1 62 -6 62 -11 0 -35 -29 -66 -293 -318 -67 -64 -94
-96 -85 -101 12 -7 42 -11 173 -25 33 -3 67 -7 75 -9 8 -1 49 -6 90 -10 41 -5
84 -9 95 -11 11 -1 25 -3 32 -3 17 -1 -10 -87 -54 -176 -166 -329 -592 -771
-979 -1013 -291 -181 -581 -261 -767 -211 -200 54 -333 225 -412 529 -1 6 -16
101 -21 140 -29 210 -41 648 -35 1354 l1 178 56 -7 c31 -4 68 -9 83 -11z
m4735 -194 c-3 -117 -25 -224 -71 -339 -49 -124 -116 -228 -276 -433 -234
-299 -277 -383 -381 -743 -160 -554 -338 -869 -598 -1061 -33 -24 -122 -79
-197 -121 -297 -167 -311 -177 -420 -306 -77 -91 -120 -117 -192 -117 -95 0
-135 136 -74 248 68 125 203 224 520 387 198 101 272 152 376 255 175 174 249
333 344 740 5 21 46 220 51 250 10 58 48 169 78 230 47 96 93 160 217 305 205
238 285 386 339 628 10 43 20 80 22 82 6 6 233 53 248 52 11 -2 15 -15 14 -57z"/>
</g>
</svg>
